<?xml version="1.0" encoding="UTF-8" standalone="no"?><!DOCTYPE svg PUBLIC "-//W3C//DTD SVG 1.1//EN" "http://www.w3.org/Graphics/SVG/1.1/DTD/svg11.dtd"><svg width="100%" height="100%" viewBox="0 0 500 200" version="1.1" xmlns="http://www.w3.org/2000/svg" xmlns:xlink="http://www.w3.org/1999/xlink" xml:space="preserve" xmlns:serif="http://www.serif.com/" style="fill-rule:evenodd;clip-rule:evenodd;stroke-linejoin:round;stroke-miterlimit:2;"><path d="M5.642,126.495c-2.358,-8.587 -3.559,-17.506 -3.559,-26.49c0,-41.008 25.756,-78.505 64.094,-93.292l5.026,13.01c-33,12.731 -55.165,44.991 -55.165,80.282c0,7.742 1.029,15.408 3.055,22.796l-13.451,3.694Z" style="fill:#69d3a7;fill-rule:nonzero;"/><path d="M178.962,60.389c-14.92,-28.642 -44.287,-46.438 -76.623,-46.438c-11.457,0 -22.593,2.206 -33.075,6.543l-5.349,-12.881c12.187,-5.043 25.112,-7.613 38.424,-7.613c37.566,0 71.671,20.665 89.002,53.943l-12.379,6.446Z" style="fill:url(#_Linear1);fill-rule:nonzero;"/><path d="M72.404,79.372c8.092,0 14.683,4.316 18.071,11.843l0.267,0.589l13.59,-4.615l-0.289,-0.696c-5.262,-12.817 -17.384,-20.783 -31.639,-20.783c-10.022,0 -18.167,3.212 -24.898,9.808c-6.688,6.553 -10.075,14.797 -10.075,24.509c0,9.626 3.387,17.827 10.075,24.38c6.731,6.596 14.876,9.808 24.898,9.808c14.255,-0 26.377,-7.966 31.639,-20.772l0.289,-0.696l-13.611,-4.626l-0.257,0.611c-3.034,7.398 -9.786,11.82 -18.06,11.82c-5.638,0.001 -10.396,-1.969 -14.169,-5.846c-3.816,-3.929 -5.745,-8.865 -5.745,-14.668c0,-5.847 1.886,-10.686 5.745,-14.798c3.762,-3.897 8.531,-5.867 14.169,-5.867Z" style="fill:#fff;fill-rule:nonzero;"/><path d="M239.872,75.529c-6.27,-6.51 -14.095,-9.819 -23.269,-9.819c-9.111,0 -16.613,3.245 -22.315,9.637l0,-8.373l-14.683,-0l-0,91.236l14.683,-0l0,-33.632c5.702,6.393 13.194,9.637 22.315,9.637c9.174,0 17.009,-3.309 23.279,-9.829c6.174,-6.553 9.293,-14.744 9.293,-24.359c-0.011,-9.712 -3.13,-17.945 -9.303,-24.498Zm-11.512,39.156c-3.762,3.887 -8.531,5.846 -14.158,5.846c-5.712,0 -10.343,-1.916 -14.169,-5.846c-3.816,-3.93 -5.745,-8.865 -5.745,-14.669c0,-5.974 1.876,-10.814 5.745,-14.797c3.816,-3.941 8.446,-5.846 14.169,-5.846c5.638,-0 10.396,1.97 14.158,5.846c3.784,3.897 5.617,8.737 5.617,14.797c-0,5.975 -1.844,10.772 -5.617,14.669Z" style="fill:#fff;fill-rule:nonzero;"/><path d="M273.075,74.833l0,-7.859l-14.683,-0l-0,65.967l14.683,-0l0,-37.219c0,-5.963 2.401,-10.525 7.138,-13.555c4.706,-3.009 10.354,-3.565 17.267,-1.681l0.89,0.246l-0,-14.112l-0.547,-0.128c-9.282,-2.217 -18.595,0.974 -24.748,8.341Z" style="fill:#fff;fill-rule:nonzero;"/><path d="M336.461,65.71c-9.678,0 -17.888,3.298 -24.404,9.808c-6.603,6.596 -9.947,14.84 -9.947,24.509c0,9.626 3.387,17.827 10.075,24.38c6.731,6.596 14.877,9.808 24.898,9.808c13.579,-0 25.252,-6.895 31.232,-18.449l0.343,-0.664l-12.422,-5.503l-0.3,0.589c-3.601,6.96 -10.514,11.114 -18.467,11.114c-10.332,0 -18.242,-6.307 -20.386,-16.147l53.268,0l0.065,-0.631c1.157,-10.643 -1.586,-19.873 -8.135,-27.443c-6.517,-7.549 -15.209,-11.371 -25.82,-11.371Zm-18.939,27.667c2.605,-9.004 9.958,-14.765 18.939,-14.765c9.229,0 16.581,5.761 18.96,14.765l-37.899,0Z" style="fill:#fff;fill-rule:nonzero;"/><path d="M409.644,93.731c-8.006,-1.499 -14.919,-2.805 -14.919,-8.373c-0,-4.422 4.705,-7.506 11.436,-7.506c7.427,0 11.5,3.191 12.454,9.754l0.107,0.739l14.682,-3.073l-0.104,-0.664c-1.975,-11.66 -12.371,-18.908 -27.128,-18.908c-7.407,-0 -13.677,1.916 -18.628,5.696c-5.059,3.758 -7.621,8.662 -7.621,14.594c0,8.587 5.445,15.032 14.587,17.238c2.369,0.557 4.877,1.007 7.3,1.457c9.099,1.659 17.694,3.233 17.694,9.358c0,4.722 -5.487,8.009 -13.332,8.009c-7.985,-0 -12.39,-3.191 -13.473,-9.765l-0.118,-0.729l-14.673,3.074l0.118,0.674c2.133,11.831 12.647,18.898 28.135,18.898c7.867,0 14.61,-1.959 20.01,-5.814c5.404,-3.812 8.133,-8.726 8.133,-14.605c0,-15.418 -13.662,-17.988 -24.66,-20.054Z" style="fill:#fff;fill-rule:nonzero;"/><path d="M473.254,93.731c-8.004,-1.499 -14.917,-2.805 -14.917,-8.373c0,-4.422 4.705,-7.506 11.434,-7.506c7.429,0 11.5,3.191 12.454,9.754l0.108,0.739l14.684,-3.073l-0.109,-0.664c-1.971,-11.66 -12.366,-18.908 -27.125,-18.908c-7.408,-0 -13.679,1.916 -18.629,5.696c-5.058,3.758 -7.621,8.662 -7.621,14.594c0,8.587 5.446,15.032 14.588,17.238c2.371,0.557 4.875,1.007 7.3,1.457c9.1,1.659 17.696,3.233 17.696,9.358c-0,4.722 -5.488,8.009 -13.334,8.009c-7.987,-0 -12.391,-3.191 -13.475,-9.765l-0.116,-0.729l-14.671,3.074l0.116,0.674c2.134,11.831 12.646,18.898 28.134,18.898c7.866,0 14.608,-1.959 20.012,-5.814c5.4,-3.812 8.134,-8.726 8.134,-14.605c-0,-15.418 -13.667,-17.988 -24.663,-20.054Z" style="fill:#fff;fill-rule:nonzero;"/><path d="M157.525,66.974l-19.367,49.006l-19.496,-49.006l-15.948,-0l27.341,66.888l-19.453,47.175l13.945,2.774l48.048,-116.837l-15.07,-0Z" style="fill:#fff;fill-rule:nonzero;"/><path d="M113.097,174.956l-3.397,8.223c-0.675,1.628 -2.219,2.73 -3.955,2.805c-1.147,0.043 -2.304,0.075 -3.473,0.075c-39.988,-0.021 -75.368,-28.213 -84.135,-67.059l-13.612,3.073c4.919,21.789 17.266,41.565 34.769,55.699c17.706,14.294 40.01,22.185 62.828,22.228l0.204,-0c1.34,-0 2.669,-0.032 3.998,-0.085c7.159,-0.3 13.558,-4.787 16.291,-11.436l4.437,-10.75l-13.955,-2.773Z" style="fill:url(#_Linear2);fill-rule:nonzero;"/><defs><linearGradient id="_Linear1" x1="0" y1="0" x2="1" y2="0" gradientUnits="userSpaceOnUse" gradientTransform="matrix(76.1037,81.3405,-81.3405,76.1037,91.9071,-6.45592)"><stop offset="0" style="stop-color:#58d09e;stop-opacity:1"/><stop offset="0.09" style="stop-color:#58d09e;stop-opacity:1"/><stop offset="0.99" style="stop-color:#58d09e;stop-opacity:0"/><stop offset="1" style="stop-color:#58d09e;stop-opacity:0"/></linearGradient><linearGradient id="_Linear2" x1="0" y1="0" x2="1" y2="0" gradientUnits="userSpaceOnUse" gradientTransform="matrix(145.393,38.6988,-38.6988,145.393,1.01493,145.506)"><stop offset="0" style="stop-color:#58d09e;stop-opacity:1"/><stop offset="0.08" style="stop-color:#58d09e;stop-opacity:1"/><stop offset="0.76" style="stop-color:#fff;stop-opacity:1"/><stop offset="1" style="stop-color:#fff;stop-opacity:1"/></linearGradient></defs></svg>